<svg width="1515" height="545" viewBox="0 0 1515 545" fill="none" xmlns="http://www.w3.org/2000/svg">
<path d="M705.01 363.156C705.01 378 701.495 390.565 694.463 400.852C687.562 411.008 677.211 418.755 663.409 424.094C649.607 429.302 632.419 431.906 611.846 431.906C596.612 431.906 583.526 430.93 572.588 428.977C561.781 427.023 550.844 423.768 539.776 419.211V369.992C551.625 375.331 564.32 379.758 577.862 383.273C591.534 386.659 603.513 388.352 613.799 388.352C625.388 388.352 633.656 386.659 638.604 383.273C643.682 379.758 646.221 375.201 646.221 369.602C646.221 365.956 645.18 362.701 643.096 359.836C641.143 356.841 636.846 353.521 630.206 349.875C623.565 346.099 613.148 341.216 598.956 335.227C585.284 329.497 574.021 323.703 565.167 317.844C556.443 311.984 549.932 305.083 545.635 297.141C541.469 289.068 539.385 278.846 539.385 266.477C539.385 246.294 547.198 231.125 562.823 220.969C578.578 210.682 599.607 205.539 625.909 205.539C639.45 205.539 652.341 206.906 664.581 209.641C676.95 212.375 689.646 216.737 702.667 222.727L684.698 265.695C673.89 261.008 663.669 257.167 654.034 254.172C644.528 251.177 634.828 249.68 624.932 249.68C616.208 249.68 609.633 250.852 605.206 253.195C600.778 255.539 598.565 259.12 598.565 263.938C598.565 267.453 599.672 270.578 601.885 273.312C604.229 276.047 608.656 279.107 615.167 282.492C621.807 285.747 631.508 289.979 644.268 295.188C656.638 300.266 667.38 305.604 676.495 311.203C685.609 316.672 692.64 323.508 697.588 331.711C702.536 339.784 705.01 350.266 705.01 363.156ZM803.065 209.641V428H743.495V209.641H803.065ZM773.377 124.094C782.232 124.094 789.849 126.177 796.229 130.344C802.609 134.38 805.799 141.997 805.799 153.195C805.799 164.263 802.609 171.945 796.229 176.242C789.849 180.409 782.232 182.492 773.377 182.492C764.393 182.492 756.711 180.409 750.331 176.242C744.081 171.945 740.956 164.263 740.956 153.195C740.956 141.997 744.081 134.38 750.331 130.344C756.711 126.177 764.393 124.094 773.377 124.094ZM981.784 205.539C1005.09 205.539 1023.84 211.919 1038.03 224.68C1052.23 237.31 1059.32 257.622 1059.32 285.617V428H999.752V300.461C999.752 284.836 996.888 273.052 991.159 265.109C985.56 257.167 976.706 253.195 964.596 253.195C946.367 253.195 933.932 259.38 927.292 271.75C920.651 284.12 917.331 301.958 917.331 325.266V428H857.76V209.641H903.268L911.276 237.57H914.596C919.284 230.018 925.078 223.898 931.979 219.211C939.01 214.523 946.758 211.073 955.221 208.859C963.815 206.646 972.669 205.539 981.784 205.539ZM1202.1 205.148C1231.4 205.148 1253.86 211.529 1269.49 224.289C1285.11 237.049 1292.92 256.451 1292.92 282.492V428H1251.32L1239.8 398.312H1238.24C1231.99 406.125 1225.61 412.505 1219.1 417.453C1212.59 422.401 1205.1 426.047 1196.64 428.391C1188.17 430.734 1177.89 431.906 1165.78 431.906C1152.89 431.906 1141.3 429.432 1131.01 424.484C1120.85 419.536 1112.85 411.984 1106.99 401.828C1101.13 391.542 1098.2 378.521 1098.2 362.766C1098.2 339.589 1106.34 322.531 1122.61 311.594C1138.89 300.526 1163.3 294.406 1195.85 293.234L1233.74 292.062V282.492C1233.74 271.034 1230.75 262.635 1224.76 257.297C1218.77 251.958 1210.44 249.289 1199.76 249.289C1189.21 249.289 1178.86 250.786 1168.71 253.781C1158.55 256.776 1148.39 260.552 1138.24 265.109L1118.51 224.875C1130.1 218.755 1143.05 213.938 1157.38 210.422C1171.83 206.906 1186.74 205.148 1202.1 205.148ZM1233.74 326.828L1210.7 327.609C1191.43 328.13 1178.02 331.581 1170.46 337.961C1163.04 344.341 1159.33 352.74 1159.33 363.156C1159.33 372.271 1162 378.781 1167.34 382.688C1172.68 386.464 1179.64 388.352 1188.24 388.352C1201 388.352 1211.74 384.576 1220.46 377.023C1229.32 369.471 1233.74 358.729 1233.74 344.797V326.828ZM1498.79 363.156C1498.79 378 1495.28 390.565 1488.24 400.852C1481.34 411.008 1470.99 418.755 1457.19 424.094C1443.39 429.302 1426.2 431.906 1405.63 431.906C1390.39 431.906 1377.31 430.93 1366.37 428.977C1355.56 427.023 1344.62 423.768 1333.56 419.211V369.992C1345.41 375.331 1358.1 379.758 1371.64 383.273C1385.31 386.659 1397.29 388.352 1407.58 388.352C1419.17 388.352 1427.44 386.659 1432.39 383.273C1437.46 379.758 1440 375.201 1440 369.602C1440 365.956 1438.96 362.701 1436.88 359.836C1434.92 356.841 1430.63 353.521 1423.99 349.875C1417.35 346.099 1406.93 341.216 1392.74 335.227C1379.06 329.497 1367.8 323.703 1358.95 317.844C1350.22 311.984 1343.71 305.083 1339.42 297.141C1335.25 289.068 1333.17 278.846 1333.17 266.477C1333.17 246.294 1340.98 231.125 1356.6 220.969C1372.36 210.682 1393.39 205.539 1419.69 205.539C1433.23 205.539 1446.12 206.906 1458.36 209.641C1470.73 212.375 1483.43 216.737 1496.45 222.727L1478.48 265.695C1467.67 261.008 1457.45 257.167 1447.81 254.172C1438.31 251.177 1428.61 249.68 1418.71 249.68C1409.99 249.68 1403.41 250.852 1398.99 253.195C1394.56 255.539 1392.35 259.12 1392.35 263.938C1392.35 267.453 1393.45 270.578 1395.67 273.312C1398.01 276.047 1402.44 279.107 1408.95 282.492C1415.59 285.747 1425.29 289.979 1438.05 295.188C1450.42 300.266 1461.16 305.604 1470.28 311.203C1479.39 316.672 1486.42 323.508 1491.37 331.711C1496.32 339.784 1498.79 350.266 1498.79 363.156Z" fill="#1C1C1C"/>
<path d="M294.997 260.682C248.395 307.284 250.972 304.707 196.665 359.014C142.357 413.322 160.542 395.136 98.3323 457.347C44.0249 403.039 44.0248 314.99 98.3322 260.682C152.64 206.375 240.689 206.375 294.997 260.682Z" fill="#E97203"/>
<path d="M408.325 177.346C361.723 223.947 364.3 221.37 309.992 275.678C255.685 329.985 273.87 311.8 211.66 374.01C265.968 428.317 354.017 428.317 408.325 374.01C462.632 319.703 462.632 231.653 408.325 177.346Z" fill="#E97203"/>
</svg>
