<svg width="1457" height="500" viewBox="0 0 1457 500" fill="none" xmlns="http://www.w3.org/2000/svg">
<path d="M640.217 404C622.617 404 606.75 400.933 592.617 394.8C578.483 388.667 566.75 379.6 557.417 367.6L585.417 343.6C593.417 352.933 602.083 359.733 611.417 364C621.017 368 631.817 370 643.817 370C648.617 370 653.017 369.467 657.017 368.4C661.283 367.067 664.883 365.2 667.817 362.8C671.017 360.4 673.417 357.6 675.017 354.4C676.617 350.933 677.417 347.2 677.417 343.2C677.417 336.267 674.883 330.667 669.817 326.4C667.15 324.533 662.883 322.533 657.017 320.4C651.417 318 644.083 315.6 635.017 313.2C619.55 309.2 606.883 304.667 597.017 299.6C587.15 294.533 579.55 288.8 574.217 282.4C570.217 277.333 567.283 271.867 565.417 266C563.55 259.867 562.617 253.2 562.617 246C562.617 234.267 565.95 223.867 572.617 214.8C579.283 205.733 588.217 198.667 599.417 193.6C610.883 188.267 623.683 185.6 637.817 185.6C647.683 185.6 657.417 186.933 667.017 189.6C676.883 192.267 685.95 196.133 694.217 201.2C702.483 206.267 709.417 212.267 715.017 219.2L691.417 245.2C686.35 240.133 680.75 235.733 674.617 232C668.75 228 662.75 224.933 656.617 222.8C650.483 220.667 644.883 219.6 639.817 219.6C634.217 219.6 629.15 220.133 624.617 221.2C620.083 222.267 616.217 223.867 613.017 226C610.083 228.133 607.817 230.8 606.217 234C604.617 237.2 603.817 240.8 603.817 244.8C604.083 248.267 604.883 251.6 606.217 254.8C607.817 257.733 609.95 260.267 612.617 262.4C615.55 264.533 619.95 266.8 625.817 269.2C631.683 271.6 639.15 273.867 648.217 276C661.55 279.467 672.483 283.333 681.017 287.6C689.817 291.6 696.75 296.267 701.817 301.6C707.15 306.667 710.883 312.533 713.017 319.2C715.15 325.867 716.217 333.333 716.217 341.6C716.217 353.6 712.75 364.4 705.817 374C699.15 383.333 690.083 390.667 678.617 396C667.15 401.333 654.35 404 640.217 404ZM760.813 400V190H802.013V400H760.813ZM780.813 143.6C772.013 143.6 765.213 141.333 760.413 136.8C755.613 132.267 753.213 125.867 753.213 117.6C753.213 109.867 755.613 103.6 760.413 98.8C765.48 94 772.28 91.6 780.813 91.6C789.613 91.6 796.413 93.8667 801.213 98.4C806.013 102.933 808.413 109.333 808.413 117.6C808.413 125.333 805.88 131.6 800.813 136.4C796.013 141.2 789.347 143.6 780.813 143.6ZM857.342 400V190H898.542V233.2L891.342 238C894.008 228.667 899.208 220.133 906.942 212.4C914.675 204.4 923.875 198 934.542 193.2C945.208 188.133 956.142 185.6 967.342 185.6C983.342 185.6 996.675 188.8 1007.34 195.2C1018.01 201.333 1026.01 210.8 1031.34 223.6C1036.67 236.4 1039.34 252.533 1039.34 272V400H998.142V274.8C998.142 262.8 996.542 252.933 993.342 245.2C990.142 237.2 985.208 231.467 978.542 228C971.875 224.267 963.608 222.667 953.742 223.2C945.742 223.2 938.408 224.533 931.742 227.2C925.075 229.6 919.208 233.067 914.142 237.6C909.342 242.133 905.475 247.467 902.542 253.6C899.875 259.467 898.542 265.867 898.542 272.8V400H878.142C874.675 400 871.208 400 867.742 400C864.275 400 860.808 400 857.342 400ZM1211.63 400V263.2C1211.63 251.467 1207.37 242 1198.83 234.8C1190.57 227.333 1180.03 223.6 1167.23 223.6C1155.5 223.6 1144.83 226 1135.23 230.8C1125.9 235.6 1117.37 242.933 1109.63 252.8L1082.83 226C1095.37 212.4 1108.83 202.267 1123.23 195.6C1137.9 188.933 1153.63 185.6 1170.43 185.6C1186.43 185.6 1200.3 188.267 1212.03 193.6C1223.77 198.933 1232.83 206.8 1239.23 217.2C1245.63 227.333 1248.83 239.733 1248.83 254.4V400H1211.63ZM1148.83 404C1135.23 404 1123.1 401.333 1112.43 396C1101.77 390.667 1093.23 383.333 1086.83 374C1080.7 364.4 1077.63 353.2 1077.63 340.4C1077.63 329.2 1079.63 319.333 1083.63 310.8C1087.63 302.267 1093.5 295.2 1101.23 289.6C1109.23 284 1119.1 279.733 1130.83 276.8C1142.83 273.867 1156.57 272.4 1172.03 272.4H1230.43L1226.83 305.2H1166.83C1158.83 305.2 1151.63 306 1145.23 307.6C1139.1 308.933 1133.77 311.2 1129.23 314.4C1124.97 317.333 1121.77 320.933 1119.63 325.2C1117.5 329.2 1116.43 334 1116.43 339.6C1116.43 345.467 1117.9 350.667 1120.83 355.2C1123.77 359.467 1127.77 362.8 1132.83 365.2C1137.9 367.6 1143.77 368.8 1150.43 368.8C1160.03 368.8 1169.1 367.2 1177.63 364C1186.43 360.533 1194.17 355.867 1200.83 350C1207.77 344.133 1213.1 337.6 1216.83 330.4L1226.43 357.2C1220.83 366.533 1213.9 374.667 1205.63 381.6C1197.37 388.533 1188.43 394 1178.83 398C1169.23 402 1159.23 404 1148.83 404ZM1362.9 404C1345.3 404 1329.44 400.933 1315.3 394.8C1301.17 388.667 1289.44 379.6 1280.1 367.6L1308.1 343.6C1316.1 352.933 1324.77 359.733 1334.1 364C1343.7 368 1354.5 370 1366.5 370C1371.3 370 1375.7 369.467 1379.7 368.4C1383.97 367.067 1387.57 365.2 1390.5 362.8C1393.7 360.4 1396.1 357.6 1397.7 354.4C1399.3 350.933 1400.1 347.2 1400.1 343.2C1400.1 336.267 1397.57 330.667 1392.5 326.4C1389.84 324.533 1385.57 322.533 1379.7 320.4C1374.1 318 1366.77 315.6 1357.7 313.2C1342.24 309.2 1329.57 304.667 1319.7 299.6C1309.84 294.533 1302.24 288.8 1296.9 282.4C1292.9 277.333 1289.97 271.867 1288.1 266C1286.24 259.867 1285.3 253.2 1285.3 246C1285.3 234.267 1288.64 223.867 1295.3 214.8C1301.97 205.733 1310.9 198.667 1322.1 193.6C1333.57 188.267 1346.37 185.6 1360.5 185.6C1370.37 185.6 1380.1 186.933 1389.7 189.6C1399.57 192.267 1408.64 196.133 1416.9 201.2C1425.17 206.267 1432.1 212.267 1437.7 219.2L1414.1 245.2C1409.04 240.133 1403.44 235.733 1397.3 232C1391.44 228 1385.44 224.933 1379.3 222.8C1373.17 220.667 1367.57 219.6 1362.5 219.6C1356.9 219.6 1351.84 220.133 1347.3 221.2C1342.77 222.267 1338.9 223.867 1335.7 226C1332.77 228.133 1330.5 230.8 1328.9 234C1327.3 237.2 1326.5 240.8 1326.5 244.8C1326.77 248.267 1327.57 251.6 1328.9 254.8C1330.5 257.733 1332.64 260.267 1335.3 262.4C1338.24 264.533 1342.64 266.8 1348.5 269.2C1354.37 271.6 1361.84 273.867 1370.9 276C1384.24 279.467 1395.17 283.333 1403.7 287.6C1412.5 291.6 1419.44 296.267 1424.5 301.6C1429.84 306.667 1433.57 312.533 1435.7 319.2C1437.84 325.867 1438.9 333.333 1438.9 341.6C1438.9 353.6 1435.44 364.4 1428.5 374C1421.84 383.333 1412.77 390.667 1401.3 396C1389.84 401.333 1377.04 404 1362.9 404Z" fill="white"/>
<path d="M121.163 240.205C171.757 189.611 251.576 186.054 306.279 229.533L110.492 425.32C67.0129 370.617 70.5696 290.799 121.163 240.205Z" stroke="#E97203" stroke-width="32"/>
<path d="M444.837 344.179C495.43 293.585 498.988 213.767 455.508 159.064L259.722 354.85C314.425 398.329 394.243 394.773 444.837 344.179Z" stroke="#E97203" stroke-width="32"/>
</svg>
